<svg xmlns="http://www.w3.org/2000/svg" xmlns:xlink="http://www.w3.org/1999/xlink" viewBox="0 0 56.03 66.98"><defs><style>.cls-1{fill:none;}.cls-2{clip-path:url(#clip-path);}.cls-3{fill:#231f20;}</style><clipPath id="clip-path"><rect class="cls-1" width="56.03" height="66.98"/></clipPath></defs><title>lighthouse-logo_1</title><g id="Layer_2" data-name="Layer 2"><g id="Layer_1-2" data-name="Layer 1"><g class="cls-2"><path class="cls-3" d="M30,50.71h-3.9a.41.41,0,0,0-.41.41V62l.82.08V51.53h3.08V62.09l.82-.08V51.12a.42.42,0,0,0-.41-.41"/><path class="cls-3" d="M32.82,53.09h4.73L39,55.4H32.82Zm-4.57-7a.38.38,0,0,0-.47,0l-4.29,3H19.14c.19-1.41.42-3.15.67-5.07l4.81-.15H31.4l4.83.15c.25,1.92.48,3.66.67,5.07H32.54ZM17.06,55.4l1.43-2.31h4.72V55.4Zm6.15-3.13H18.73c.06-.46.16-1.26.3-2.3h4.18ZM22.12,17.14l3.42-.88h4.95l3.43.88A3.25,3.25,0,0,0,33,19.65l-2.8-.7H25.82l-2.78.7a3.22,3.22,0,0,0-.92-2.51m-.52-2.37,3.94-1h4.95l3.95,1v1.66l-3.79-1H25.39l-3.79,1Zm1.33-2.85v1.67l-1.33.34V12.27Zm2.15-.55V13l-1.33.35V11.71ZM23.75,9.21l1.33-.34v1.66l-1.33.34ZM28,5.36l3.11,2.71L30.65,8l-.11,0H25.49l-.1,0-.48.12Zm4.27,5.51L31,10.53V8.87l1.34.34Zm0,2.51L31,13V11.37l1.34.34Zm-3.86-2.13h1.71v1.69H28.43Zm-.82,1.69H25.9V11.25h1.71Zm2.53-2.5H25.9V8.75h4.24Zm4.3,1.83v1.66l-1.34-.34V11.92ZM20.59,38.19l4.35-.3h6.15l4.35.3c.24,1.75.46,3.46.68,5.07l-4.7-.15H24.61l-4.69.15c.21-1.61.44-3.32.67-5.07m.79-5.89,3.88-.45h5.51l3.89.45c.22,1.65.45,3.37.67,5.07l-4.19-.3H24.93l-4.23.3c.23-1.7.46-3.42.68-5.07m.9-6.74c.32-2.41.57-4.25.68-5l3-.75h4.17l3,.75c.11.81.36,2.64.68,5L30.56,25h-5Zm-.12.85,3.43-.6h4.86l3.42.6c.21,1.53.44,3.25.68,5.06L30.84,31h-5.6l-3.75.44c.24-1.81.47-3.53.67-5.06M32.82,50H37c.14,1,.24,1.84.3,2.3H32.82Zm5.35,2.57c-.23-1.73-4-29.9-4.32-32.42A2.46,2.46,0,0,1,35,17.32h0s0,0,.06,0a.4.4,0,0,0,.16-.32V12a.4.4,0,0,0-.3-.39l-1.85-.48V8.89a.37.37,0,0,0-.14-.3h0L28.29,4.51a.42.42,0,0,0-.54,0L23.07,8.59h0a.41.41,0,0,0-.14.3v2.19l-1.84.48a.4.4,0,0,0-.31.39v5a.42.42,0,0,0,.16.32l.06,0h0a2.46,2.46,0,0,1,1.19,2.8c-.36,2.51-4.09,30.68-4.32,32.42l-1.94,3.15v2.24c.26.21.54.4.81.59V56.21h2.83v4l.82.37V56.21h2.82v5.33l.82.19v-12l4-2.83,4,2.83v12l.81-.19V56.21h2.83v4.35l.82-.38v-4h2.82v2.32l.81-.6V55.69Z"/><path class="cls-3" d="M18.42,36.06c0-.27.07-.54.1-.82H9.85l.06.82Z"/><path class="cls-3" d="M18.1,38.47c0-.27.07-.54.1-.82H10.08l.12.82Z"/><path class="cls-3" d="M17.78,40.88c0-.27.07-.54.1-.82H10.51c.06.28.12.55.19.82Z"/><path class="cls-3" d="M17.46,43.29c0-.27.07-.54.1-.82H11.14l.27.82Z"/><path class="cls-3" d="M17.14,45.7c0-.27.07-.54.11-.82H12l.36.82Z"/><path class="cls-3" d="M16.82,48.11c0-.27.07-.54.11-.82H13.16l.47.82Z"/><path class="cls-3" d="M16.5,50.52c0-.25.07-.53.11-.82H14.66c.2.28.4.55.61.82Z"/><path class="cls-3" d="M37.64,36.06h8.49l.06-.82H37.53c0,.28.07.55.11.82"/><path class="cls-3" d="M38,38.47h7.88l.12-.82H37.85c0,.28.07.55.11.82"/><path class="cls-3" d="M38.28,40.88h7.06c.07-.27.14-.54.2-.82H38.17c0,.28.07.55.11.82"/><path class="cls-3" d="M38.6,43.29h6c.1-.27.18-.54.27-.82H38.49c0,.28.07.55.11.82"/><path class="cls-3" d="M38.92,45.7h4.75l.36-.82H38.81c0,.28.07.55.11.82"/><path class="cls-3" d="M39.24,48.11h3.17c.16-.27.32-.54.47-.82H39.13c0,.28.07.55.11.82"/><path class="cls-3" d="M39.55,50.52h1.22c.21-.27.41-.54.61-.82H39.45c0,.29.07.57.1.82"/><path class="cls-3" d="M28,3.22C14.37,3.22,3.26,16.8,3.26,33.49S14.37,63.75,28,63.75,52.77,50.18,52.77,33.49,41.66,3.22,28,3.22m0,61.35c-14.09,0-25.56-13.94-25.56-31.08S13.92,2.41,28,2.41,53.58,16.35,53.58,33.49,42.11,64.57,28,64.57"/><path class="cls-3" d="M28,.81C13,.81.81,15.47.81,33.49S13,66.16,28,66.16s27.2-14.66,27.2-32.67S43,.81,28,.81M28,67C12.57,67,0,52,0,33.49S12.57,0,28,0,56,15,56,33.49,43.46,67,28,67"/><path class="cls-3" d="M34.85,9.58c7.58,3.59,13,13,13,23.91,0,7.86-2.78,14.89-7.15,19.57l.46.68c4.58-4.82,7.51-12.11,7.51-20.25,0-11.44-5.78-21.2-13.82-24.8Z"/><path class="cls-3" d="M31.07,5.07l1.22,1.08c10.26,2.49,18,13.8,18,27.34,0,8.94-3.39,16.92-8.66,22v1.12c5.75-5.21,9.48-13.64,9.48-23.14,0-14.55-8.74-26.57-20.07-28.42"/><path class="cls-3" d="M14.37,55.51c-5.27-5.1-8.66-13.07-8.66-22,0-13.54,7.77-24.85,18-27.34L25,5.07C13.63,6.92,4.89,18.94,4.89,33.49c0,9.51,3.73,17.93,9.48,23.15Z"/><path class="cls-3" d="M15.32,53.07C11,48.39,8.16,41.35,8.16,33.49c0-11,5.43-20.34,13-23.92V8.68C13.13,12.28,7.34,22,7.34,33.49c0,8.15,2.93,15.44,7.52,20.27Z"/></g></g></g></svg>