<?xml version="1.0" encoding="utf-8"?>
<!-- Generator: Adobe Illustrator 23.0.1, SVG Export Plug-In . SVG Version: 6.00 Build 0)  -->
<svg version="1.1" id="Layer_1" xmlns="http://www.w3.org/2000/svg" xmlns:xlink="http://www.w3.org/1999/xlink" x="0px" y="0px"
	 viewBox="0 0 56 67" style="enable-background:new 0 0 56 67;" xml:space="preserve">
<style type="text/css">
	.st0{clip-path:url(#SVGID_2_);}
	.st1{fill:#FFFFFF;}
</style>
<title>lighthouse-logo_1</title>
<g>
	<g id="Layer_1-2">
		<g>
			<defs>
				<rect id="SVGID_1_" width="56" height="67"/>
			</defs>
			<clipPath id="SVGID_2_">
				<use xlink:href="#SVGID_1_"  style="overflow:visible;"/>
			</clipPath>
			<g class="st0">
				<path class="st1" d="M30,50.7h-3.9c-0.2,0-0.4,0.2-0.4,0.4V62l0.8,0.1V51.5h3.1v10.6l0.8-0.1V51.1C30.4,50.9,30.2,50.7,30,50.7"
					/>
				<path class="st1" d="M32.8,53.1h4.7l1.5,2.3h-6.2V53.1z M28.2,46.1c-0.1-0.1-0.3-0.1-0.5,0l-4.3,3h-4.4c0.2-1.4,0.4-3.2,0.7-5.1
					l4.8-0.2h6.8l4.8,0.2c0.2,1.9,0.5,3.7,0.7,5.1h-4.4L28.2,46.1z M17.1,55.4l1.4-2.3h4.7v2.3H17.1z M23.2,52.3h-4.5
					c0.1-0.5,0.2-1.3,0.3-2.3h4.2V52.3z M22.1,17.1l3.4-0.9h5l3.4,0.9c-0.7,0.7-1,1.6-0.9,2.5l-2.8-0.7h-4.4L23,19.6
					C23.1,18.7,22.8,17.8,22.1,17.1 M21.6,14.8l3.9-1h4.9l4,1v1.7l-3.8-1h-5.3l-3.8,1V14.8z M22.9,11.9v1.7l-1.3,0.3v-1.7L22.9,11.9
					z M25.1,11.4V13l-1.3,0.4v-1.6L25.1,11.4z M23.8,9.2l1.3-0.3v1.7l-1.3,0.3V9.2z M28,5.4l3.1,2.7L30.6,8h-0.1h-5h-0.1l-0.5,0.1
					L28,5.4z M32.3,10.9L31,10.5V8.9l1.3,0.3L32.3,10.9z M32.3,13.4L31,13v-1.6l1.3,0.3L32.3,13.4z M28.4,11.3h1.7v1.7h-1.7
					L28.4,11.3z M27.6,12.9h-1.7v-1.7h1.7L27.6,12.9z M30.1,10.4h-4.2V8.8h4.2L30.1,10.4z M34.4,12.3v1.7l-1.3-0.3v-1.7L34.4,12.3z
					 M20.6,38.2l4.4-0.3h6.1l4.3,0.3c0.2,1.8,0.5,3.5,0.7,5.1l-4.7-0.2h-6.8l-4.7,0.2C20.1,41.6,20.4,39.9,20.6,38.2 M21.4,32.3
					l3.9-0.5h5.5l3.9,0.5c0.2,1.7,0.5,3.4,0.7,5.1l-4.2-0.3h-6.2l-4.2,0.3C20.9,35.7,21.2,33.9,21.4,32.3 M22.3,25.6
					c0.3-2.4,0.6-4.2,0.7-5l3-0.8h4.2l3,0.8c0.1,0.8,0.4,2.6,0.7,5L30.6,25h-5L22.3,25.6z M22.2,26.4l3.4-0.6h4.9l3.4,0.6
					c0.2,1.5,0.4,3.2,0.7,5.1L30.8,31h-5.6l-3.8,0.4C21.7,29.6,22,27.9,22.2,26.4 M32.8,50H37c0.1,1,0.2,1.8,0.3,2.3h-4.5V50z
					 M38.2,52.6c-0.2-1.7-4-29.9-4.3-32.4c-0.3-1.1,0.2-2.3,1.2-2.8l0,0c0,0,0,0,0.1,0c0.1-0.1,0.2-0.2,0.2-0.3v-5
					c0-0.2-0.1-0.3-0.3-0.4l-1.8-0.5V8.9c0-0.1,0-0.2-0.1-0.3l0,0l-4.6-4.1c-0.2-0.1-0.4-0.1-0.5,0l-4.7,4.1l0,0
					c-0.1,0.1-0.1,0.2-0.1,0.3v2.2l-1.8,0.5c-0.2,0-0.3,0.2-0.3,0.4v5c0,0.1,0.1,0.2,0.2,0.3H21l0,0c1,0.5,1.5,1.7,1.2,2.8
					c-0.4,2.5-4.1,30.7-4.3,32.4l-1.9,3.2v2.2c0.3,0.2,0.5,0.4,0.8,0.6v-2.3h2.8v4l0.8,0.4v-4.4h2.8v5.3l0.8,0.2v-12l4-2.8l4,2.8v12
					l0.8-0.2v-5.3h2.8v4.3l0.8-0.4v-4h2.8v2.3l0.8-0.6v-2.2L38.2,52.6z"/>
				<path class="st1" d="M18.4,36.1c0-0.3,0.1-0.5,0.1-0.8H9.9l0.1,0.8H18.4z"/>
				<path class="st1" d="M18.1,38.5c0-0.3,0.1-0.5,0.1-0.8h-8.1l0.1,0.8H18.1z"/>
				<path class="st1" d="M17.8,40.9c0-0.3,0.1-0.5,0.1-0.8h-7.4c0.1,0.3,0.1,0.5,0.2,0.8H17.8z"/>
				<path class="st1" d="M17.5,43.3c0-0.3,0.1-0.5,0.1-0.8h-6.4l0.3,0.8H17.5z"/>
				<path class="st1" d="M17.1,45.7c0-0.3,0.1-0.5,0.1-0.8H12l0.4,0.8H17.1z"/>
				<path class="st1" d="M16.8,48.1c0-0.3,0.1-0.5,0.1-0.8h-3.8l0.5,0.8H16.8z"/>
				<path class="st1" d="M16.5,50.5c0-0.2,0.1-0.5,0.1-0.8h-2c0.2,0.3,0.4,0.5,0.6,0.8H16.5z"/>
				<path class="st1" d="M37.6,36.1h8.5l0.1-0.8h-8.7C37.5,35.5,37.6,35.8,37.6,36.1"/>
				<path class="st1" d="M38,38.5h7.9l0.1-0.8h-8.2C37.8,37.9,37.9,38.2,38,38.5"/>
				<path class="st1" d="M38.3,40.9h7.1c0.1-0.3,0.1-0.5,0.2-0.8h-7.4C38.2,40.3,38.2,40.6,38.3,40.9"/>
				<path class="st1" d="M38.6,43.3h6c0.1-0.3,0.2-0.5,0.3-0.8h-6.4C38.5,42.8,38.6,43,38.6,43.3"/>
				<path class="st1" d="M38.9,45.7h4.8l0.4-0.8h-5.2C38.8,45.2,38.9,45.4,38.9,45.7"/>
				<path class="st1" d="M39.2,48.1h3.2c0.2-0.3,0.3-0.5,0.5-0.8h-3.8C39.1,47.6,39.2,47.8,39.2,48.1"/>
				<path class="st1" d="M39.5,50.5h1.2c0.2-0.3,0.4-0.5,0.6-0.8h-1.9C39.5,50,39.5,50.3,39.5,50.5"/>
				<path class="st1" d="M28,3.2C14.4,3.2,3.3,16.8,3.3,33.5S14.4,63.8,28,63.8s24.8-13.6,24.8-30.3S41.7,3.2,28,3.2 M28,64.6
					c-14.1,0-25.6-13.9-25.6-31.1S13.9,2.4,28,2.4s25.6,13.9,25.6,31.1S42.1,64.6,28,64.6"/>
				<path class="st1" d="M28,0.8C13,0.8,0.8,15.5,0.8,33.5S13,66.2,28,66.2s27.2-14.7,27.2-32.7S43,0.8,28,0.8 M28,67
					C12.6,67,0,52,0,33.5S12.6,0,28,0s28,15,28,33.5S43.5,67,28,67"/>
				<path class="st1" d="M34.8,9.6c7.6,3.6,13,13,13,23.9c0,7.9-2.8,14.9-7.2,19.6l0.5,0.7c4.6-4.8,7.5-12.1,7.5-20.2
					c0-11.4-5.8-21.2-13.8-24.8V9.6z"/>
				<path class="st1" d="M31.1,5.1l1.2,1.1c10.3,2.5,18,13.8,18,27.3c0,8.9-3.4,16.9-8.7,22v1.1c5.8-5.2,9.5-13.6,9.5-23.1
					C51.1,18.9,42.4,6.9,31.1,5.1"/>
				<path class="st1" d="M14.4,55.5c-5.3-5.1-8.7-13.1-8.7-22c0-13.5,7.8-24.9,18-27.3L25,5.1C13.6,6.9,4.9,18.9,4.9,33.5
					c0,9.5,3.7,17.9,9.5,23.1L14.4,55.5z"/>
				<path class="st1" d="M15.3,53.1C11,48.4,8.2,41.3,8.2,33.5c0-11,5.4-20.3,13-23.9V8.7C13.1,12.3,7.3,22,7.3,33.5
					c0,8.1,2.9,15.4,7.5,20.3L15.3,53.1z"/>
			</g>
		</g>
	</g>
</g>
</svg>
