<?xml version="1.0" encoding="utf-8"?>
<!-- Generator: Adobe Illustrator 23.0.1, SVG Export Plug-In . SVG Version: 6.00 Build 0)  -->
<svg version="1.1" id="Layer_1" xmlns="http://www.w3.org/2000/svg" xmlns:xlink="http://www.w3.org/1999/xlink" x="0px" y="0px"
	 viewBox="0 0 56 67" style="enable-background:new 0 0 56 67;" xml:space="preserve">
<style type="text/css">
	.st0{clip-path:url(#SVGID_2_);}
	.st1{fill:#FFFFFF;}
</style>
<title>thistle-logo</title>
<g>
	<g id="Layer_1-2">
		<g>
			<defs>
				<rect id="SVGID_1_" width="56" height="67"/>
			</defs>
			<clipPath id="SVGID_2_">
				<use xlink:href="#SVGID_1_"  style="overflow:visible;"/>
			</clipPath>
			<g class="st0">
				<path class="st1" d="M21.8,53.2l2.2-4h-5.8l3.7-1.8c3.9,1.6,8.4,1.6,12.3,0l3.7,1.8h-5.8l2.2,4l-6.2-3L21.8,53.2z M13.8,36.2
					c4.3,1.9,7.8,5.2,9.8,9.4c0.3,0.6,0.6,1.2,1,1.8c-2.3-0.5-4.5-1.6-6.3-3.2C15.9,42.2,14.3,39.4,13.8,36.2 M15.3,29.6
					c1.8,1.2,3.4,2.7,4.6,4.5c-0.5,1.4-0.8,3-0.8,4.5c-0.8-0.6-1.6-1.2-2.4-1.8C15.6,34.6,15.1,32.1,15.3,29.6 M18.8,26.8
					c1.1,0.9,2.2,1.9,3.2,3c-0.7,1.1-1.3,2.2-1.8,3.3c-0.7-1-1.6-1.9-2.5-2.7C18,29.2,18.3,28,18.8,26.8 M28,23.2
					c0.8,0.9,1.5,1.8,2.2,2.8c-0.8,0.9-1.5,1.8-2.2,2.7c-0.7-0.9-1.4-1.8-2.2-2.7C26.5,25,27.2,24.1,28,23.2 M35.8,33.2
					c-0.5-1.2-1.1-2.3-1.8-3.3c1-1.1,2.1-2.1,3.3-3c0.4,1.2,0.8,2.4,1,3.7C37.3,31.3,36.5,32.2,35.8,33.2 M39.4,36.8
					c-0.8,0.5-1.7,1.1-2.4,1.8c0-1.5-0.3-3.1-0.8-4.5c1.2-1.8,2.8-3.3,4.6-4.5C40.9,32,40.5,34.6,39.4,36.8 M28,44.2
					c0.4,1.3,1,2.5,1.8,3.5c-1.2,0.1-2.4,0.1-3.6,0C27,46.6,27.6,45.4,28,44.2 M24.3,45.3c-0.6-1.3-0.9-2.7-1-4.2
					c0.1-2.4,0.8-4.8,2-6.9c1.4,2.2,2.2,4.6,2.3,7.2c0,2.2-0.8,4.3-2.1,5.9C25.1,46.7,24.7,46,24.3,45.3L24.3,45.3L24.3,45.3
					 M24.9,33.4c-0.9,1.6-1.6,3.2-2,5c-0.5-1.6-1.1-3-2-4.4c0.5-1.2,1.1-2.4,1.8-3.5C23.4,31.4,24.1,32.4,24.9,33.4 M30.2,33.4
					c-1,1.5-1.7,3.2-2.2,5c-0.5-1.8-1.2-3.5-2.2-5c0.7-1.2,1.4-2.3,2.2-3.4C28.8,31,29.6,32.1,30.2,33.4 M33.2,38.4
					c-0.4-1.8-1.1-3.4-2-5c0.7-1,1.4-2,2.2-2.9c0.7,1.1,1.3,2.3,1.8,3.5C34.3,35.4,33.7,36.9,33.2,38.4 M31.8,45.4
					c-0.3,0.7-0.7,1.4-1.2,2c-1.3-1.7-2.1-3.8-2.1-5.9c0.1-2.6,0.9-5.1,2.3-7.2c1.2,2.1,1.9,4.5,2,6.9
					C32.7,42.6,32.4,44.1,31.8,45.4L31.8,45.4L31.8,45.4z M36.1,39.4c-1,0.9-1.9,2-2.7,3.1c0-0.3,0.1-0.7,0.1-1l0,0
					c0.2-2.3,0.9-4.5,2.1-6.4C36.1,36.4,36.2,37.9,36.1,39.4 M33,29.7c-0.8,0.9-1.6,1.8-2.2,2.8c-0.7-1.1-1.4-2.2-2.2-3.3
					c0.7-0.9,1.4-1.8,2.2-2.7C31.6,27.6,32.3,28.7,33,29.7 M35,27.7c-0.5,0.5-1,0.9-1.4,1.4c-0.7-1-1.4-2.1-2.3-3.1
					c0.5-0.6,1.1-1.2,1.7-1.9C33.9,25.2,34.5,26.4,35,27.7 M25.3,26.6c0.8,0.9,1.5,1.8,2.2,2.7c-0.8,1.1-1.5,2.2-2.2,3.3
					c-0.7-1-1.5-1.9-2.3-2.8C23.7,28.7,24.4,27.6,25.3,26.6 M23,24.1c0.6,0.6,1.2,1.2,1.7,1.9c-0.8,1.1-1.6,2.1-2.3,3.1
					c-0.4-0.5-0.9-0.9-1.4-1.4C21.6,26.5,22.2,25.2,23,24.1 M20,39.3c-0.1-1.5,0.1-3,0.5-4.4c1.2,1.9,1.9,4.2,2.1,6.4l0,0
					c0,0.3,0,0.7,0.1,1C21.9,41.3,21,40.3,20,39.3 M37.8,44.2c-1.8,1.5-4,2.6-6.3,3.2c0.4-0.6,0.7-1.1,1-1.8
					c2.1-4.2,5.5-7.6,9.8-9.4C41.8,39.3,40.2,42.2,37.8,44.2 M36.2,55l-2.7-5h8l-6.3-3c1.1-0.6,2.2-1.3,3.2-2.1
					c2.8-2.3,4.6-5.7,4.9-9.3V35l-0.6,0.2c-0.7,0.3-1.4,0.6-2,1c0.9-2.3,1.2-4.9,0.9-7.4v-0.7l-0.6,0.4c-0.7,0.4-1.3,0.8-1.9,1.3
					c-0.2-1.3-0.6-2.5-1-3.7c1.8-4.2,4.3-8.2,7.3-11.7c-0.2-0.2-0.3-0.4-0.5-0.7c-3.1,3.6-5.7,7.6-7.6,12c-0.4,0.3-0.8,0.7-1.2,1
					c1.6-5.3,4.1-10.3,7.4-14.8c-0.2-0.2-0.4-0.4-0.6-0.6c-3.3,4.5-5.9,9.5-7.5,14.9c-0.2-0.3-0.3-0.7-0.5-1
					c1.2-5.5,3.3-10.8,6.2-15.5l-0.6-0.5c-2.8,4.6-4.9,9.7-6.2,15c-0.2-0.3-0.4-0.6-0.6-1c0.9-5.3,2.5-10.5,4.9-15.4
					c-0.2-0.2-0.5-0.3-0.7-0.4c-2.5,5-4.2,10.3-5,15.8l-0.9,1c0.4-6.1,1.7-12.2,3.8-17.9l-0.8-0.3c-2.3,6.1-3.6,12.5-4,19.1
					l-0.1,0.1l-0.7-0.8l0,0c0-6.4,0.7-12.9,2-19.2l-0.8-0.2c-1.3,6-1.9,12.2-2,18.4l-0.9-1.1V4.8h-0.8v17.5l-0.9,1.1
					c-0.1-6.2-0.7-12.3-2-18.4c-0.3,0-0.5,0.1-0.8,0.2c1.3,6.3,2,12.7,2,19.2l0,0l-0.7,0.8l-0.1-0.1c-0.3-6.5-1.6-13-3.9-19.1
					l-0.8,0.3c2.1,5.7,3.4,11.7,3.9,17.8c-0.3-0.3-0.6-0.6-0.9-1c-0.8-5.5-2.5-10.8-5-15.8c-0.2,0.1-0.5,0.3-0.7,0.4
					c2.4,4.9,4.1,10.1,4.9,15.4c-0.2,0.3-0.4,0.6-0.6,1c-1.2-5.3-3.4-10.4-6.2-15L15,9.8c3,4.8,5.1,10,6.3,15.6
					c-0.2,0.4-0.4,0.7-0.5,1c-1.6-5.4-4.2-10.4-7.5-14.9L12.7,12c3.3,4.5,5.8,9.5,7.4,14.8c-0.4-0.3-0.8-0.7-1.2-1
					c-1.9-4.4-4.5-8.4-7.6-12c-0.2,0.2-0.3,0.4-0.5,0.7c3,3.5,5.5,7.4,7.4,11.7c-0.4,1.2-0.8,2.4-1,3.7c-0.6-0.5-1.2-0.9-1.9-1.4
					l-0.6-0.4l-0.1,0.7c-0.3,2.5,0.1,5,0.9,7.4c-0.6-0.4-1.3-0.7-2-1l-0.6-0.2l0.1,0.7c0.3,3.6,2.1,6.9,4.9,9.3c1,0.8,2,1.5,3.1,2.1
					l-6.4,3h8L19.9,55l5.4-2.6c0.6,1.8,0.9,3.6,0.9,5.5V62l0.8,0.1v-4.2c0-2-0.3-4-1-5.9l2-1l2,1c-0.7,1.9-1,3.9-1,5.8v4.2l0.8-0.1
					v-4.1c0-1.9,0.3-3.7,0.9-5.5L36.2,55z"/>
				<path class="st1" d="M28,63.8c-13.6,0-24.8-13.6-24.8-30.3S14.4,3.2,28,3.2s24.8,13.6,24.8,30.3S41.7,63.8,28,63.8 M28,2.4
					C13.9,2.4,2.5,16.4,2.5,33.5S13.9,64.6,28,64.6s25.6-13.9,25.6-31.1S42.1,2.4,28,2.4"/>
				<path class="st1" d="M28,66.2c-15,0-27.2-14.7-27.2-32.7S13,0.8,28,0.8s27.2,14.6,27.2,32.7S43,66.2,28,66.2 M28,0
					C12.6,0,0,15,0,33.5S12.6,67,28,67s28-15,28-33.5S43.5,0,28,0"/>
				<path class="st1" d="M31.6,58.5v0.8c9.7-2.2,17.1-13,17.1-25.9c0-5.4-1.3-10.6-3.9-15.3l-0.6,0.6c2.4,4.5,3.7,9.6,3.7,14.7
					C47.8,46,40.8,56.4,31.6,58.5"/>
				<path class="st1" d="M8.2,33.5c0-5.1,1.2-10.2,3.7-14.7l-0.6-0.6c-2.6,4.7-4,10-3.9,15.3c0,13,7.4,23.8,17.1,25.9v-0.8
					C15.2,56.4,8.2,46,8.2,33.5"/>
				<path class="st1" d="M46.5,16.3c-0.2,0.2-0.4,0.4-0.6,0.6c2.9,5,4.4,10.8,4.4,16.6c0,13.8-8.1,25.4-18.8,27.5v0.8
					c11.1-2.1,19.6-14,19.6-28.3C51.2,27.4,49.6,21.5,46.5,16.3"/>
				<path class="st1" d="M5.7,33.5c0-5.8,1.5-11.6,4.4-16.6l-0.6-0.6c-3.1,5.2-4.7,11.2-4.6,17.2c0,14.3,8.5,26.2,19.6,28.3V61
					C13.8,58.9,5.7,47.3,5.7,33.5"/>
			</g>
		</g>
	</g>
</g>
</svg>
