<svg xmlns="http://www.w3.org/2000/svg" xmlns:xlink="http://www.w3.org/1999/xlink" viewBox="0 0 56.03 66.98"><defs><style>.cls-1{fill:none;}.cls-2{clip-path:url(#clip-path);}.cls-3{fill:#231f20;}</style><clipPath id="clip-path"><rect class="cls-1" width="56.03" height="66.98"/></clipPath></defs><title>thistle-logo</title><g id="Layer_2" data-name="Layer 2"><g id="Layer_1-2" data-name="Layer 1"><g class="cls-2"><path class="cls-3" d="M21.77,53.19l2.16-4H18.14l3.74-1.79a15.94,15.94,0,0,0,12.28,0l3.73,1.79H32.1l2.17,4-6.25-3Zm-8-17a19.76,19.76,0,0,1,9.81,9.42,13.06,13.06,0,0,0,1,1.77,14.93,14.93,0,0,1-6.26-3.16,13.07,13.07,0,0,1-4.55-8m1.54-6.67a17.46,17.46,0,0,1,4.61,4.53,13,13,0,0,0-.81,4.53,21.06,21.06,0,0,0-2.42-1.76,14.39,14.39,0,0,1-1.38-7.3m3.45-2.76A33.08,33.08,0,0,1,22,29.82a24.25,24.25,0,0,0-1.75,3.33,17.3,17.3,0,0,0-2.48-2.71,21.44,21.44,0,0,1,1-3.67M28,23.17c.77.93,1.52,1.84,2.23,2.75-.81.91-1.55,1.8-2.23,2.67-.68-.87-1.43-1.76-2.24-2.67C26.5,25,27.24,24.1,28,23.17m7.76,10A24.25,24.25,0,0,0,34,29.82a35.49,35.49,0,0,1,3.26-3.05,20.56,20.56,0,0,1,1,3.67,17.8,17.8,0,0,0-2.48,2.71m3.59,3.68a22.09,22.09,0,0,0-2.43,1.76,12.79,12.79,0,0,0-.81-4.53,17.46,17.46,0,0,1,4.61-4.53,14.29,14.29,0,0,1-1.37,7.3M28,44.15a11.71,11.71,0,0,0,1.79,3.54,14.7,14.7,0,0,1-3.59,0A11.52,11.52,0,0,0,28,44.15m-3.71,1.14a9.9,9.9,0,0,1-.95-4.2,15,15,0,0,1,2-6.93,14.27,14.27,0,0,1,2.29,7.2,9.61,9.61,0,0,1-2.12,5.94,12.92,12.92,0,0,1-1.17-2h0l0,0m.51-11.92a19.16,19.16,0,0,0-2,5A16.28,16.28,0,0,0,20.81,34a22.49,22.49,0,0,1,1.76-3.5,26.57,26.57,0,0,1,2.25,2.92m5.43-.06a17.77,17.77,0,0,0-2.23,5,17.81,17.81,0,0,0-2.24-5A34,34,0,0,1,28,29.93a33.77,33.77,0,0,1,2.23,3.38m2.93,5.08a18.86,18.86,0,0,0-2-5,26.57,26.57,0,0,1,2.25-2.92A21.64,21.64,0,0,1,35.22,34a16.24,16.24,0,0,0-2,4.44m-1.47,6.94a11.47,11.47,0,0,1-1.17,2,9.66,9.66,0,0,1-2.11-5.94,14.17,14.17,0,0,1,2.29-7.2,15.14,15.14,0,0,1,2,6.93,9.94,9.94,0,0,1-1,4.21v0Zm4.38-6a20.41,20.41,0,0,0-2.69,3.06,8.93,8.93,0,0,0,.08-1h0a14,14,0,0,1,2.08-6.44,11.47,11.47,0,0,1,.52,4.41M33,29.72a27.05,27.05,0,0,0-2.25,2.83,36.65,36.65,0,0,0-2.22-3.29c.68-.88,1.42-1.77,2.23-2.69.81,1.06,1.57,2.11,2.24,3.15m2-2c-.48.45-1,.91-1.39,1.37-.68-1-1.44-2.09-2.26-3.15.55-.61,1.14-1.23,1.75-1.86A18.56,18.56,0,0,1,35,27.73m-9.68-1.16c.81.92,1.55,1.81,2.23,2.69a36.65,36.65,0,0,0-2.22,3.29A27.18,27.18,0,0,0,23,29.72q1-1.56,2.25-3.15M23,24.09Q23.9,25,24.72,26c-.81,1.06-1.58,2.11-2.26,3.15-.44-.46-.9-.92-1.39-1.37A19.21,19.21,0,0,1,23,24.09M20,39.35a11.47,11.47,0,0,1,.52-4.41,14.23,14.23,0,0,1,2.08,6.44h0a8.91,8.91,0,0,0,.07,1A20.34,20.34,0,0,0,20,39.35m17.79,4.88a15,15,0,0,1-6.27,3.16,12.38,12.38,0,0,0,1-1.76,19.72,19.72,0,0,1,9.82-9.43,13.07,13.07,0,0,1-4.55,8M36.18,55,33.46,50h8l-6.35-3a15.91,15.91,0,0,0,3.15-2.08,13.81,13.81,0,0,0,4.91-9.27l0-.66-.61.25a19,19,0,0,0-2,1,16.26,16.26,0,0,0,.93-7.36l0-.67-.57.36A20.24,20.24,0,0,0,39,29.82a22.52,22.52,0,0,0-1-3.68A45.45,45.45,0,0,1,45.3,14.45c-.16-.23-.33-.45-.5-.67a46.36,46.36,0,0,0-7.62,12c-.42.33-.82.67-1.21,1A47.81,47.81,0,0,1,43.35,12c-.18-.21-.37-.41-.57-.61a48.94,48.94,0,0,0-7.52,14.91c-.15-.33-.32-.67-.51-1A50.33,50.33,0,0,1,41,9.75l-.64-.51a51.08,51.08,0,0,0-6.19,15c-.2-.32-.42-.65-.64-1A53.57,53.57,0,0,1,38.43,7.89c-.23-.15-.46-.29-.7-.42a54.61,54.61,0,0,0-5,15.84l-.91,1A62.78,62.78,0,0,1,35.62,6.41l-.75-.31a63.06,63.06,0,0,0-3.95,19.07l-.12.13-.66-.84h0a92.6,92.6,0,0,1,2-19.18l-.8-.16a93.35,93.35,0,0,0-2,18.38l-.92-1.11V4.83h-.82V22.38l-.92,1.12a93.28,93.28,0,0,0-2-18.38c-.27,0-.53.1-.8.16a92.6,92.6,0,0,1,2,19.18h0l-.67.84-.12-.13A63,63,0,0,0,21.16,6.1l-.75.31a62.71,62.71,0,0,1,3.85,17.84c-.3-.31-.6-.63-.92-.95a54.24,54.24,0,0,0-5-15.83c-.23.13-.47.27-.7.42a53.64,53.64,0,0,1,4.92,15.42c-.21.31-.42.63-.61,1a50.23,50.23,0,0,0-6.23-15L15,9.75A48.94,48.94,0,0,1,21.3,25.31c-.19.35-.37.7-.52,1a48.86,48.86,0,0,0-7.53-14.91l-.57.6a47.78,47.78,0,0,1,7.39,14.8c-.39-.34-.8-.68-1.21-1a46.46,46.46,0,0,0-7.63-12c-.17.22-.34.45-.5.68A45.18,45.18,0,0,1,18.1,26.14a22.46,22.46,0,0,0-1,3.68,21.62,21.62,0,0,0-1.91-1.36l-.57-.36-.06.67a16.54,16.54,0,0,0,.93,7.36,19.76,19.76,0,0,0-2-1l-.62-.25.06.66a13.77,13.77,0,0,0,4.91,9.27,15.35,15.35,0,0,0,3.15,2.08l-6.36,3h8L19.85,55l5.39-2.64a16.5,16.5,0,0,1,.91,5.48v4.18l.81.07V57.88A17.59,17.59,0,0,0,26,52l2-1,2,1a17.35,17.35,0,0,0-1,5.84v4.25l.82-.07V57.88a16.5,16.5,0,0,1,.91-5.48Z"/><path class="cls-3" d="M28,63.75c-13.64,0-24.75-13.57-24.75-30.26S14.37,3.22,28,3.22,52.77,16.8,52.77,33.49,41.66,63.75,28,63.75M28,2.41C13.92,2.41,2.45,16.35,2.45,33.49S13.92,64.57,28,64.57,53.58,50.63,53.58,33.49,42.11,2.41,28,2.41"/><path class="cls-3" d="M28,66.16C13,66.16.82,51.51.82,33.49S13,.82,28,.82s27.2,14.65,27.2,32.67S43,66.16,28,66.16M28,0C12.57,0,0,15,0,33.49S12.57,67,28,67,56,52,56,33.49,43.46,0,28,0"/><path class="cls-3" d="M31.57,58.55v.84c9.7-2.16,17.1-13,17.1-25.9a31.18,31.18,0,0,0-3.9-15.34l-.57.65a30.39,30.39,0,0,1,3.65,14.69c0,12.49-7,22.9-16.28,25.06"/><path class="cls-3" d="M8.16,33.49a30.39,30.39,0,0,1,3.66-14.71l-.57-.64A31.12,31.12,0,0,0,7.34,33.49c0,13,7.41,23.76,17.12,25.9v-.83C15.2,56.41,8.16,46,8.16,33.49"/><path class="cls-3" d="M46.52,16.3c-.2.2-.4.4-.59.61a32.45,32.45,0,0,1,4.39,16.58c0,13.85-8.13,25.37-18.75,27.5v.83c11.08-2.12,19.57-14,19.57-28.33A33.25,33.25,0,0,0,46.52,16.3"/><path class="cls-3" d="M5.71,33.49A32.52,32.52,0,0,1,10.1,16.9l-.59-.61a33.28,33.28,0,0,0-4.62,17.2c0,14.33,8.49,26.21,19.57,28.33V61C13.84,58.86,5.71,47.34,5.71,33.49"/></g></g></g></svg>